<svg xmlns="http://www.w3.org/2000/svg" viewBox="0 0 500 500"><defs><style>.bf0377ac-bae6-408f-affa-bb73de6d71ba{fill:#e90000;}.b82bd7ef-565e-401b-9afc-907c9f803271{fill:#fff;}</style></defs><g id="aa4588d0-8495-4d8e-885c-2c2e554b02b9" data-name="图层 3"><path class="bf0377ac-bae6-408f-affa-bb73de6d71ba" d="M398.3.5H101.7A101.2,101.2,0,0,0,.5,101.7V398.3A101.2,101.2,0,0,0,101.7,499.5H398.3A101.2,101.2,0,0,0,499.5,398.3V101.7A101.2,101.2,0,0,0,398.3.5Z"/><path class="b82bd7ef-565e-401b-9afc-907c9f803271" d="M322.91,220.15A76.18,76.18,0,1,0,188.6,287.48c19.54,26.7,52.46,36.71,82.62,28.17,5.68-1.62,11.08-4.22,16.68-6.4.56,3.16,0,7.68-1.92,12.73-3.38,9.1-9.11,15.73-18.87,18.39a32.94,32.94,0,0,0-11.92,6.13c-4.49,3.59-7.2,7.94-6.9,14,.24,5,.12,10,0,15.07,0,1.62.58,2.1,2.07,2.24a89.71,89.71,0,0,0,28-1.76c10.91-2.42,20.91-6.86,29.05-14.63,12.49-11.92,18.73-26.7,18.78-44q.12-37.69,0-75.38A75.71,75.71,0,0,0,322.91,220.15Zm-72.8,60.23a37.92,37.92,0,1,1,37.94-37.64A37.89,37.89,0,0,1,250.11,280.38Z"/><path class="b82bd7ef-565e-401b-9afc-907c9f803271" d="M400.46,243.94a147.48,147.48,0,0,0-3.07-32.51c-8.24-37.57-27.9-67.86-58.84-90.62a146,146,0,0,0-77.31-28.48,147.7,147.7,0,0,0-38.2,2A150.67,150.67,0,0,0,99.67,234.47a149.57,149.57,0,0,0,35.89,105.81,150.73,150.73,0,0,0,64.66,44.43c3.88,1.39,7.88,2.45,12.14,3.76v-2.54c0-11.27,0-22.55,0-33.83a2.78,2.78,0,0,0-2.14-3.14C179.66,337.09,157.82,316,145,285.87c-9-21.15-10.9-43.21-6.37-65.73,5.27-26.2,18.32-47.94,38.83-65a111,111,0,0,1,65.57-26,113,113,0,0,1,42.93,5.6c45.45,14.91,78.13,58.78,77.72,108.58-.34,41.9-.08,83.8,0,125.7a57.17,57.17,0,0,0,.54,8.38,36.64,36.64,0,0,0,34,30.56c2.2.1,2.23.08,2.24-2.18V385.59C400.4,338.37,400.28,291.15,400.46,243.94Z"/></g></svg>